<svg width="234" height="298" viewBox="0 0 234 298" fill="none" xmlns="http://www.w3.org/2000/svg">
<path d="M0 74.5C0 33.3548 33.3548 0 74.5 0H234V149H74.5C33.3548 149 0 115.645 0 74.5Z" fill="#000540"/>
<path d="M0 149H159.5C200.645 149 234 182.355 234 223.5C234 264.645 200.645 298 159.5 298H0V149Z" fill="#000540"/>
<rect x="125" y="25" width="61" height="64" rx="30.5" fill="#E59D2C"/>
<path d="M50 57C50 39.3269 64.3269 25 82 25H108V89H50V57Z" fill="#EE5599"/>
<path d="M50 202H144L133 266H50V202Z" fill="#EE5599"/>
<path d="M132 101H186V212C186 241.823 161.823 266 132 266V101Z" fill="#EE5599"/>
<path d="M50 166H104V230C104 249.33 88.33 265 69 265H50V166Z" fill="#EE5599"/>
</svg>
